<svg xmlns="http://www.w3.org/2000/svg" viewBox="0 0 200 240" fill="none">
  <!-- Sun -->
  <circle cx="165" cy="30" r="22" fill="#FFB547" opacity="0.3"/>
  <circle cx="165" cy="30" r="16" fill="#FFB547" opacity="0.5"/>
  <!-- Head -->
  <!-- Wide brim sun hat -->
  <ellipse cx="100" cy="26" rx="32" ry="8" fill="#D97706"/>
  <ellipse cx="100" cy="22" rx="18" ry="11" fill="#F59E0B"/>
  <circle cx="100" cy="13" r="3" fill="#D97706"/>
  <!-- Face -->
  <circle cx="100" cy="40" r="16" fill="#FBBF24"/>
  <!-- Sunglasses -->
  <ellipse cx="93" cy="37" rx="7" ry="5" fill="#1E293B" opacity="0.7"/>
  <ellipse cx="107" cy="37" rx="7" ry="5" fill="#1E293B" opacity="0.7"/>
  <line x1="100" y1="37" x2="100" y2="37" stroke="#1E293B" stroke-width="2"/>
  <!-- Rashguard (teal) -->
  <path d="M78 60 L73 80 L88 84 L88 115 L112 115 L112 84 L127 80 L122 60 L112 55 L100 64 L88 55 Z" fill="#0D9488"/>
  <!-- Beach shorts -->
  <rect x="87" y="115" width="11" height="32" rx="2" fill="#F59E0B"/>
  <rect x="102" y="115" width="11" height="32" rx="2" fill="#F59E0B"/>
  <!-- Legs -->
  <rect x="87" y="147" width="11" height="38" rx="2" fill="#FBBF24"/>
  <rect x="102" y="147" width="11" height="38" rx="2" fill="#FBBF24"/>
  <!-- Sandals -->
  <rect x="84" y="183" width="17" height="6" rx="3" fill="#92400E"/>
  <rect x="99" y="183" width="17" height="6" rx="3" fill="#92400E"/>
  <!-- Beach wave accent -->
  <path d="M20 210 Q50 200 80 210 Q110 220 140 210 Q170 200 190 210" stroke="#5B8DEE" stroke-width="2.5" fill="none" opacity="0.5"/>
</svg>
