<svg xmlns="http://www.w3.org/2000/svg" viewBox="0 0 200 240" fill="none">
  <!-- Head -->
  <circle cx="100" cy="35" r="18" fill="#FBBF24"/>
  <!-- Coat/outer (warm brown) -->
  <path d="M70 60 L63 85 L85 90 L85 125 L115 125 L115 90 L137 85 L130 60 L115 53 L100 65 L85 53 Z" fill="#92400E"/>
  <!-- Mid layer visible -->
  <rect x="90" y="62" width="20" height="5" fill="#F59E0B" opacity="0.6"/>
  <!-- Pants (dark navy) -->
  <rect x="84" y="125" width="12" height="43" rx="2" fill="#1E293B"/>
  <rect x="104" y="125" width="12" height="43" rx="2" fill="#1E293B"/>
  <!-- Legs -->
  <rect x="84" y="167" width="12" height="24" rx="2" fill="#FBBF24"/>
  <rect x="104" y="167" width="12" height="24" rx="2" fill="#FBBF24"/>
  <!-- Boots -->
  <rect x="81" y="188" width="18" height="10" rx="4" fill="#451A03"/>
  <rect x="101" y="188" width="18" height="10" rx="4" fill="#451A03"/>
  <!-- Scarf -->
  <path d="M84 58 Q100 70 116 58" stroke="#EF4444" stroke-width="6" stroke-linecap="round" fill="none"/>
  <!-- Leaf accent -->
  <ellipse cx="162" cy="40" rx="12" ry="7" fill="#F59E0B" transform="rotate(-30 162 40)"/>
  <ellipse cx="172" cy="55" rx="10" ry="6" fill="#EF4444" transform="rotate(20 172 55)"/>
  <ellipse cx="155" cy="55" rx="9" ry="5" fill="#92400E" transform="rotate(-15 155 55)"/>
</svg>
