<svg xmlns="http://www.w3.org/2000/svg" viewBox="0 0 200 240" fill="none">
  <!-- Cap -->
  <ellipse cx="100" cy="25" rx="20" ry="9" fill="#1E293B"/>
  <rect x="80" y="25" width="40" height="7" rx="2" fill="#334155"/>
  <rect x="99" y="31" width="20" height="4" rx="2" fill="#1E293B"/>
  <!-- Head -->
  <circle cx="100" cy="42" r="16" fill="#FBBF24"/>
  <!-- Running tank top -->
  <path d="M82 62 L77 78 L88 82 L88 115 L112 115 L112 82 L123 78 L118 62 L108 58 L100 65 L92 58 Z" fill="#3B82F6"/>
  <!-- Shorts -->
  <rect x="87" y="115" width="11" height="30" rx="2" fill="#1D4ED8"/>
  <rect x="102" y="115" width="11" height="30" rx="2" fill="#1D4ED8"/>
  <!-- Legs -->
  <rect x="87" y="145" width="11" height="42" rx="2" fill="#FBBF24"/>
  <rect x="102" y="145" width="11" height="42" rx="2" fill="#FBBF24"/>
  <!-- Running shoes -->
  <rect x="84" y="185" width="18" height="9" rx="4" fill="#EF4444"/>
  <rect x="98" y="185" width="18" height="9" rx="4" fill="#EF4444"/>
  <rect x="84" y="185" width="18" height="4" rx="2" fill="#DC2626" opacity="0.5"/>
  <rect x="98" y="185" width="18" height="4" rx="2" fill="#DC2626" opacity="0.5"/>
  <!-- Motion lines -->
  <line x1="55" y1="100" x2="70" y2="100" stroke="#3B82F6" stroke-width="2" stroke-linecap="round" opacity="0.4"/>
  <line x1="50" y1="110" x2="68" y2="110" stroke="#3B82F6" stroke-width="2" stroke-linecap="round" opacity="0.3"/>
</svg>
