<svg xmlns="http://www.w3.org/2000/svg" viewBox="0 0 200 240" fill="none">
  <!-- Sun bg -->
  <circle cx="166" cy="26" r="24" fill="#FEF08A" opacity="0.55"/>
  <circle cx="166" cy="26" r="14" fill="#FDE047" opacity="0.4"/>

  <!-- Hair -->
  <path d="M84 24 Q83 7 100 5 Q117 7 116 24 Q110 17 100 16 Q90 17 84 24Z" fill="#1C1917"/>
  <!-- Head -->
  <circle cx="100" cy="28" r="17" fill="#FDBA74"/>
  <!-- Face: subtle smile -->
  <path d="M95 32 Q100 36 105 32" stroke="#EA580C" stroke-width="1.2" fill="none" stroke-linecap="round"/>
  <!-- Sunglasses -->
  <rect x="87" y="24" width="11" height="7" rx="3" fill="#1E3A5F" opacity="0.88"/>
  <rect x="101" y="24" width="11" height="7" rx="3" fill="#1E3A5F" opacity="0.88"/>
  <line x1="98" y1="27" x2="101" y2="27" stroke="#1E3A5F" stroke-width="1.5"/>

  <!-- Neck -->
  <path d="M95 44 L105 44 L104 54 L96 54Z" fill="#FDBA74"/>

  <!-- Coral T-shirt -->
  <path d="M68 54 L60 73 L80 79 L80 122 L120 122 L120 79 L140 73 L132 54 Q116 46 100 53 Q84 46 68 54Z" fill="#FB923C"/>
  <path d="M68 54 L60 73 L78 77 L78 65Z" fill="#EA580C" opacity="0.25"/>
  <path d="M132 54 L140 73 L122 77 L122 65Z" fill="#EA580C" opacity="0.25"/>
  <!-- V-collar -->
  <path d="M90 53 Q100 64 110 53" stroke="white" stroke-width="2" fill="none" stroke-linecap="round"/>
  <!-- Small pocket -->
  <rect x="106" y="82" width="9" height="8" rx="1.5" fill="#EA580C" opacity="0.35"/>

  <!-- Denim shorts -->
  <path d="M80 122 L76 160 L98 160 L100 147 L102 160 L124 160 L120 122Z" fill="#60A5FA"/>
  <line x1="80" y1="128" x2="120" y2="128" stroke="#3B82F6" stroke-width="1.5" opacity="0.5"/>
  <path d="M111 131 L111 148 L120 148" stroke="#3B82F6" stroke-width="1" fill="none" opacity="0.4"/>

  <!-- Legs (bare) -->
  <rect x="78" y="160" width="17" height="40" rx="4" fill="#FDBA74"/>
  <rect x="105" y="160" width="17" height="40" rx="4" fill="#FDBA74"/>

  <!-- White sneakers -->
  <path d="M74 196 L74 208 Q74 214 82 215 L98 215 Q103 215 103 210 L103 196Z" fill="white" stroke="#CBD5E1" stroke-width="1"/>
  <path d="M101 196 L101 208 Q101 214 109 215 L125 215 Q130 215 130 210 L130 196Z" fill="white" stroke="#CBD5E1" stroke-width="1"/>
  <rect x="74" y="208" width="29" height="5" rx="2.5" fill="#94A3B8"/>
  <rect x="101" y="208" width="29" height="5" rx="2.5" fill="#94A3B8"/>
  <line x1="78" y1="202" x2="99" y2="202" stroke="#CBD5E1" stroke-width="1.5"/>
  <line x1="105" y1="202" x2="126" y2="202" stroke="#CBD5E1" stroke-width="1.5"/>
</svg>
