<svg xmlns="http://www.w3.org/2000/svg" viewBox="0 0 200 240" fill="none">
  <!-- Speed lines bg -->
  <line x1="20" y1="68" x2="46" y2="68" stroke="#22C55E" stroke-width="2.5" opacity="0.35" stroke-linecap="round"/>
  <line x1="16" y1="80" x2="38" y2="80" stroke="#22C55E" stroke-width="1.5" opacity="0.2" stroke-linecap="round"/>
  <line x1="154" y1="55" x2="180" y2="55" stroke="#22C55E" stroke-width="2.5" opacity="0.35" stroke-linecap="round"/>

  <!-- Sport headband -->
  <path d="M84 20 Q84 14 100 13 Q116 14 116 20" fill="none" stroke="#22C55E" stroke-width="5" stroke-linecap="round"/>
  <!-- Hair -->
  <path d="M84 22 Q83 9 100 7 Q117 9 116 22 Q110 16 100 15 Q90 16 84 22Z" fill="#292524"/>
  <!-- Head -->
  <circle cx="100" cy="28" r="17" fill="#FDBA74"/>
  <!-- Slight smile -->
  <path d="M96 33 Q100 37 104 33" stroke="#C2410C" stroke-width="1.2" fill="none" stroke-linecap="round"/>

  <!-- Neck -->
  <path d="M95 44 L105 44 L104 53 L96 53Z" fill="#FDBA74"/>

  <!-- Sports tank: lime green -->
  <path d="M78 53 L70 70 L85 74 L85 118 L115 118 L115 74 L130 70 L122 53 Q113 48 100 52 Q87 48 78 53Z" fill="#4ADE80"/>
  <!-- Racerback cut -->
  <path d="M78 53 L70 70 L82 73 L82 62Z" fill="#16A34A" opacity="0.3"/>
  <path d="M122 53 L130 70 L118 73 L118 62Z" fill="#16A34A" opacity="0.3"/>
  <!-- Round neckline -->
  <path d="M91 52 Q100 61 109 52" stroke="white" stroke-width="2" fill="none" stroke-linecap="round"/>
  <!-- Side stripe -->
  <line x1="85" y1="74" x2="85" y2="118" stroke="white" stroke-width="2" opacity="0.4"/>
  <line x1="115" y1="74" x2="115" y2="118" stroke="white" stroke-width="2" opacity="0.4"/>

  <!-- Running shorts: black with green trim -->
  <path d="M85 118 L82 160 L98 160 L100 148 L102 160 L118 160 L115 118Z" fill="#1F2937"/>
  <rect x="85" y="118" width="4" height="42" fill="#4ADE80" opacity="0.6"/>
  <rect x="111" y="118" width="4" height="42" fill="#4ADE80" opacity="0.6"/>
  <line x1="85" y1="124" x2="115" y2="124" stroke="#374151" stroke-width="1.5" opacity="0.6"/>

  <!-- Bare legs -->
  <rect x="81" y="160" width="16" height="38" rx="4" fill="#FDBA74"/>
  <rect x="103" y="160" width="16" height="38" rx="4" fill="#FDBA74"/>

  <!-- Running shoes: white/green -->
  <path d="M76 194 L76 208 Q76 215 86 216 L100 216 Q104 215 104 209 L104 194Z" fill="white" stroke="#E2E8F0" stroke-width="1"/>
  <path d="M100 194 L100 208 Q100 215 110 216 L124 216 Q128 215 128 209 L128 194Z" fill="white" stroke="#E2E8F0" stroke-width="1"/>
  <rect x="76" y="208" width="28" height="6" rx="3" fill="#4ADE80"/>
  <rect x="100" y="208" width="28" height="6" rx="3" fill="#4ADE80"/>
  <path d="M80 202 Q89 198 100 200" stroke="#4ADE80" stroke-width="2" fill="none" stroke-linecap="round"/>
  <path d="M104 202 Q113 198 124 200" stroke="#4ADE80" stroke-width="2" fill="none" stroke-linecap="round"/>
</svg>
