<svg xmlns="http://www.w3.org/2000/svg" viewBox="0 0 200 240" fill="none">
  <!-- Beanie hat -->
  <ellipse cx="100" cy="22" rx="20" ry="12" fill="#1E293B"/>
  <rect x="80" y="22" width="40" height="8" rx="2" fill="#334155"/>
  <circle cx="100" cy="12" r="5" fill="#CBD5E1"/>
  <!-- Head -->
  <circle cx="100" cy="38" r="16" fill="#FBBF24"/>
  <!-- Padding jacket (dark navy) -->
  <path d="M68 60 L62 88 L83 93 L83 128 L117 128 L117 93 L138 88 L132 60 L117 53 L100 62 L83 53 Z" fill="#1E3A5F"/>
  <!-- Padding lines -->
  <line x1="68" y1="72" x2="83" y2="75" stroke="#2563EB" stroke-width="1.5" opacity="0.4"/>
  <line x1="68" y1="82" x2="83" y2="85" stroke="#2563EB" stroke-width="1.5" opacity="0.4"/>
  <line x1="117" y1="72" x2="132" y2="75" stroke="#2563EB" stroke-width="1.5" opacity="0.4"/>
  <line x1="117" y1="82" x2="132" y2="85" stroke="#2563EB" stroke-width="1.5" opacity="0.4"/>
  <line x1="87" y1="65" x2="113" y2="65" stroke="#2563EB" stroke-width="1.5" opacity="0.3"/>
  <line x1="87" y1="80" x2="113" y2="80" stroke="#2563EB" stroke-width="1.5" opacity="0.3"/>
  <line x1="87" y1="95" x2="113" y2="95" stroke="#2563EB" stroke-width="1.5" opacity="0.3"/>
  <!-- Thick pants -->
  <rect x="82" y="128" width="13" height="42" rx="2" fill="#334155"/>
  <rect x="105" y="128" width="13" height="42" rx="2" fill="#334155"/>
  <!-- Winter boots -->
  <rect x="79" y="167" width="19" height="14" rx="4" fill="#292524"/>
  <rect x="102" y="167" width="19" height="14" rx="4" fill="#292524"/>
  <!-- Scarf/neckwarmer -->
  <rect x="86" y="54" width="28" height="10" rx="5" fill="#EF4444"/>
  <!-- Snowflakes -->
  <circle cx="40" cy="40" r="2" fill="#CBD5E1"/>
  <circle cx="155" cy="25" r="2.5" fill="#CBD5E1"/>
  <circle cx="165" cy="60" r="1.5" fill="#CBD5E1"/>
  <circle cx="30" cy="70" r="2" fill="#CBD5E1"/>
</svg>
